<svg xmlns="http://www.w3.org/2000/svg" viewBox="0 0 24 24" fill="#ef4444" width="48px" height="48px">
  <path d="M21.8,8.001c-0.244-1.639-1.643-2.938-3.291-3.201C16.508,4.456,12,4.456,12,4.456s-4.508,0-6.509,0.344
	C3.842,5.063,2.444,6.363,2.2,8.001C2,9.683,2,12,2,12s0,2.317,0.2,3.999c0.244,1.639,1.642,2.938,3.291,3.201
	C7.492,19.544,12,19.544,12,19.544s4.508,0,6.509-0.344c1.649-0.263,3.047-1.563,3.291-3.201C22,14.317,22,12,22,12
	S22,9.683,21.8,8.001z M10,15.27V8.73L15.27,12L10,15.27z"/>
</svg>
